{"accessors":[{"bufferView":0,"byteOffset":0,"componentType":5126,"count":366,"max":[0.475778013467789,1.44110000133514,0.485588997602463],"min":[-0.48583599925041,-0.95958197116852,-0.48579800128937],"normalized":false,"type":"VEC3"},{"bufferView":1,"byteOffset":0,"componentType":5123,"count":366,"max":[365],"min":[0],"normalized":false,"type":"SCALAR"},{"bufferView":2,"byteOffset":0,"componentType":5126,"count":336,"max":[0.5,1.46000003814697,0.5],"min":[-0.5,-1,-0.5],"normalized":false,"type":"VEC3"},{"bufferView":3,"byteOffset":0,"componentType":5126,"count":336,"max":[0.999968886375427,0.11023087054491,0.999936044216156,1],"min":[-0.99993604421616,-0.15359784662724,-0.99983793497086,-1],"normalized":false,"type":"VEC4"},{"bufferView":4,"byteOffset":0,"componentType":5126,"count":336,"max":[0.841581284999847,0,0.989762723445892],"min":[-1,-0.99115812778473,-0.99115651845932],"normalized":false,"type":"VEC3"},{"bufferView":5,"byteOffset":0,"componentType":5126,"count":336,"max":[1,1],"min":[0,0],"normalized":false,"type":"VEC2"},{"bufferView":6,"byteOffset":0,"componentType":5123,"count":336,"max":[335],"min":[0],"normalized":false,"type":"SCALAR"}],"asset":{"generator":"Godot Engine v4.3.stable.official@77dcf97d82cbfe4e4615475fa52ca03da645dbd8","version":"2.0"},"bufferViews":[{"buffer":0,"byteLength":4392,"byteOffset":0,"byteStride":12,"target":34962},{"buffer":0,"byteLength":732,"byteOffset":4392,"target":34963},{"buffer":0,"byteLength":4032,"byteOffset":5124,"byteStride":12,"target":34962},{"buffer":0,"byteLength":5376,"byteOffset":9156,"byteStride":16,"target":34962},{"buffer":0,"byteLength":4032,"byteOffset":14532,"byteStride":12,"target":34962},{"buffer":0,"byteLength":2688,"byteOffset":18564,"byteStride":8,"target":34962},{"buffer":0,"byteLength":672,"byteOffset":21252,"target":34963}],"buffers":[{"byteLength":21924,"uri":"missile0.bin"}],"extensions":{"OMI_physics_shape":{"shapes":[{"convex":{"mesh":0},"type":"convex"}]}},"extensionsUsed":["GODOT_single_root","KHR_materials_unlit","OMI_physics_body","OMI_physics_shape"],"materials":[{"extensions":{"KHR_materials_unlit":{}},"pbrMetallicRoughness":{"baseColorFactor":[0.99999988079071,0.552010595798492,0.226966321468353,1],"metallicFactor":0,"roughnessFactor":1}}],"meshes":[{"extras":{"targetNames":[]},"primitives":[{"attributes":{"POSITION":0},"indices":1,"mode":4}]},{"extras":{"targetNames":[]},"primitives":[{"attributes":{"NORMAL":4,"POSITION":2,"TANGENT":3,"TEXCOORD_0":5},"indices":6,"material":0,"mode":4}]}],"nodes":[{"children":[1,2,3,4,5,6],"extensions":{"OMI_physics_body":{"trigger":{"nodes":[1]}}},"name":"Missile","scale":[0.200000002980232,0.200000002980232,0.200000002980232]},{"extensions":{"OMI_physics_body":{"trigger":{"shape":0}}},"name":"CollisionShape3D","rotation":[-0.70710676908493,0,0,0.70710676908493]},{"mesh":1,"name":"MeshInstance3D","rotation":[-0.70710676908493,0,0,0.70710676908493]},{"name":"ParticlesTrail","translation":[0,0,1]},{"name":"ExplosionParticles"},{"name":"Lifetime"},{"name":"Missile2","scale":[5,5,5]}],"scene":0,"scenes":[{"nodes":[0]}]}